<?xml version="1.0" encoding="utf-8"?>
<!-- Generator: Adobe Illustrator 27.1.1, SVG Export Plug-In . SVG Version: 6.00 Build 0)  -->
<svg version="1.1" xmlns="http://www.w3.org/2000/svg" xmlns:xlink="http://www.w3.org/1999/xlink" x="0px" y="0px"
	 viewBox="0 0 283.1 246.2" style="enable-background:new 0 0 283.1 246.2;" xml:space="preserve">
<style type="text/css">
	.st0{fill:#C9AD8F;}
	.st1{fill:#BDA48A;}
	.st2{fill:#F3D5B5;}
	.st3{fill:url(#SVGID_1_);}
	.st4{fill:#D69898;}
	.st5{fill:url(#SVGID_00000079484350649230094250000003880188989616767632_);}
</style>
<g id="Layer_14">
	<polygon points="-597.5,141.7 -610.2,142.4 -618.1,145.9 -628.1,152.5 -635.4,159.6 -644.5,169.8 -652.6,179.4 -660.7,189.4 
		-666.7,199.8 -672.4,206.9 -677.4,214.7 -680.8,222 -682.7,227.5 -686.3,235.4 -689,242.9 -690.5,246.7 -575,246.7 -571.5,238.5 
		-565.8,233.3 -562.9,227.2 -558.9,220.5 -552.9,202.3 -555.4,190.7 -563.4,175.1 -566.8,161.7 -574.7,149.4 -586.9,143.2 	"/>
	<polygon points="-543.1,177.9 -533.7,185.3 -525.7,189.5 -518.6,192.6 -511.4,194.2 -506.7,199.4 -504.2,209.4 -503.4,218.3 
		-507.9,246.6 -529.4,246.7 -532.6,238.5 -537.2,217.7 -540.3,202.5 -542.5,189.9 	"/>
	<path d="M-456.2,167.4l6.4,3l4.3,1.9l4.2,2l3.4,3.3l3.8,3.8l4.2,4.2l3.2,5.2l2.3,4.7l1.8,4.7l2.4,7.2l1.8,6.8l1.8,9.3l1.1,6.4
		c0,0,1.1,6,1.3,8s-0.2,8-0.2,8l-25,0.2l-1.9-5.8l2-9.3l5.8-5.6l2.7-5.9l-5.2-7.5l-5.8-9.6l-5.5-7.9l-5-11.6l-3.2-8.1L-456.2,167.4
		L-456.2,167.4z"/>
	<path class="st0" d="M-572.5,23.7l2.9-5.3l2.1-5.2l2.6-4.6l4.3-3.6c0,0-5.4,1.8-6.6,2.1c-1,0.2-3.2,1.1-4.2,1.6c-1.3,0.7-5,3-5,3
		l-4.6,3.8l-3.8,3.9l-5.6,6.1l-5,5.5l-4.2,6.8l-2.7,5.5l-1.9,5.1l-1.6,8.1l-2,8.5l-0.5,5.6l0,6.8l1.5,7.6l3.3,5.1l2.1,3.1l2.7,3
		l1.8,3.1l1.4,3.8l-0.9,4.1l-3,4.7l-3.4,4.7l-1.8,4.1l-1.5,5.8l-0.6,5.9l2.3,7.2l3.2,3l8.5,2.6l8.1,3.1l5.2,2.8l4,4.3l3.4,6.7
		l1.6,7.6l0.8,6.2l3.1,7.4l3.9,7.3l3,6.8l2.2,7.1L-560,215l-4,11.8l-5.5,7.1l-4,7.6l-2.9,5.2h47.8l-1.4-12.6l-1.4-10.1l-2-11.5
		l-2.9-12.4l-1.3-10.5l-2-9.6l-8.5-63.4l-11.4-37.7l-6-26.1l-5-17.9L-572.5,23.7L-572.5,23.7z"/>
	<path class="st0" d="M-572.8,24.3l1.1-2.2l1.8-3.2l1-2.2l0.8-2l0.9-2l1.5-2.2l0.6-1.2l0.8-1.2l1-1.4l0.8-0.8l5.2-1.8l7.7-2l5.7-1.3
		l6.1-0.5l5.7-0.2l8.3,0.2l6.2,1.1c3.2,0.5,6.2,1.7,9,3.3l1.7,1c1.8,1.1,3.5,2.3,5.1,3.7l1.2,1.1c2.4,2.2,4.5,4.6,6.3,7.3l1.6,2.5
		l3.5,6.9l4.8,14.5l3.3,10.8l3.4,14l3.4,14.8l2.2,22l2.1,12.4l1.9,11.9l3.9,12.3l2.8,11.9l3.5,10.3l4.9,8.8l6.2,15.2l7.8,13.7l4.4,5
		c1.7,2,3.2,4.1,4.5,6.4l1.3,2.4c0.4,0.8,0.7,1.6,0.9,2.5l0,0c0.8,4.5,0.1,9-1.9,13.1l0,0l-5.8,5.1l-0.1,0.3
		c-1.3,3.2-1.9,6.6-1.7,10.1l0.1,1.6l-71.6,0.5l0.6-6.1l1.1-6.6l0.8-8.8c0,0,0.3-9.2,0-9.8s-1-6.3-1-6.3l0,0c-2-3.4-3-5.9-3.4-9.2
		l-0.3-2.4l-1.1-6.1l-2.1-5.6l-2.7-11l-3.1-13l-2.2-11.7l-0.7-14.8l-0.8-13.9l-5-14.3l-2.9-10.4l-3.1-12.1l-0.2-16.6l-5.8-14.6
		l-5.8-12.7l-11.7-8.8l-9.7-3.4L-572.8,24.3L-572.8,24.3z"/>
	<polygon class="st1" points="-572.8,23.5 -577.1,24.8 -583.5,30.3 -587.5,36.1 -588.4,40.6 -588.2,45.5 -590.1,49.5 -591.8,54.4 
		-592.6,59.9 -591,64.8 -589.9,69.8 -590.9,74.2 -592.1,77.4 -593.4,82.1 -593.9,87.4 -592.4,92.2 -564.4,87 -563.8,55.7 
		-568.4,42.9 -572.8,31.4 	"/>
	<polygon class="st1" points="-593,96.5 -592.5,102.4 -591.5,108.2 -590.2,113.2 -588.4,118.1 -586.1,123.8 -583,128.6 -579.9,133 
		-575.2,136.8 -570.6,139.4 -567.2,141.7 -562.7,145.1 -558.4,147.3 -554.6,151.2 -551.5,154.8 -549.6,159 -547.8,163.8 
		-546.5,166.4 -544.5,172.4 -540.4,181.6 -538,183.5 -532.5,185.2 -535.4,167.9 -544.6,133.3 -558.5,123.4 -572.2,111.8 
		-587.9,97.9 	"/>
	<path class="st2" d="M-580.9,28.7l-2.4,2.9c-0.4,0.5-0.8,1.1-1,1.7l-0.6,1.7c-0.1,0.4-0.2,0.8-0.3,1.1l-0.3,2.6c0,0.2,0,0.4,0,0.5
		v2.5c0,0.2,0,0.5-0.1,0.8l-0.7,3.4l-1,2.8l-1.1,2.8l-1,3.6l-0.5,2.6c-0.1,0.6-0.1,1.1,0,1.7l0.3,2.3c0,0.4,0.1,0.7,0.2,1.1l0.6,2
		l0.9,2.3l0,0.1c0.3,0.8,0.5,1.6,0.5,2.4v1.5l0,1.8v0.3l-0.2,1c-0.2,0.4-0.4,0.7-0.6,1.1l-2,2.9l-1.6,2.9c-0.2,0.3-0.3,0.7-0.5,1
		l-1.1,3.2l-0.5,2.1c-0.2,0.6-0.2,1.2-0.2,1.8l-0.1,2.4c0,0.6,0,1.2,0.1,1.8l0.6,3.3l1.7,5.3l1.3,4.1l0.5,3.1
		c0.1,0.8,0.3,1.5,0.6,2.2l1.5,4.4c0.1,0.4,0.3,0.9,0.5,1.3l1.6,3.5c0.3,0.6,0.6,1.1,1,1.6l2,3.1l2,3.4l1.4,2.1
		c0.4,0.6,0.8,1.1,1.4,1.5l1.5,1.3c0.2,0.2,0.4,0.3,0.6,0.5l1.8,1.2c1.1,0.5,2.2,0.8,3.4,0.9l3.6-0.3l5.5-0.8l5.5-1.3l5.2-1.2
		l6.4-2.4l7.2-3.5l6.2-3.6l5.7-3.8l2.7-2.2l0,0c1.3-0.9,1.8-2.6,1.1-4l-3.1-6.5l-2.9-8.9l-1.5-7.2l-1.6-8.4l-0.7-8.7l-0.5-8.5
		l-0.6-5.2c-0.3-2.2-0.8-4.4-1.7-6.5l-1.2-3l-2-5.1l-5.6-6.9l-4.3-4.1c-1.3-1.3-2.9-2.4-4.5-3.2l-5.6-2.8l-6.9-2.7l-6.1-1.9
		l-0.7-0.2c-1-0.3-2.1-0.2-3,0.3l-1.9,1c-0.6,0.3-1.3,0.8-1.8,1.3l-2.5,2.4C-580.7,28.5-580.7,28.6-580.9,28.7L-580.9,28.7z"/>
	<path class="st2" d="M-572.3,136.4l1.9,0.7c1.5,0.6,2.9,1.3,4.2,2.4l0.8,0.6l4.5,3.1l3,2l3.1,2.4l1.8,2.1l1.2,1.4
		c0.9,1,1.5,2.2,2,3.5l0,0c0.2,0.5,0.4,1.1,0.7,1.6l3.7,7.1l3.1,7.9l3.4,11.1l1.6,2l4.1,3l3.8,2.1l5.4,2.5l2.8,1.4l4.5,2l5.7,1.3
		l-1.1-5.1l-0.7-7.7l-0.4-4.4l-0.7-3.1l-2.3-7.1l-1.4-4.4l0-4.5l-1.5-5.6l-0.6-4.7v-6.1l0.8-5.9l0.8-4.1l-0.7-9.8l-2.2-9.5l-38,12.2
		l-11,5L-572.3,136.4L-572.3,136.4z"/>
	
		<linearGradient id="SVGID_1_" gradientUnits="userSpaceOnUse" x1="-530.5328" y1="123.5371" x2="-602.2128" y2="112.2271" gradientTransform="matrix(1 0 0 -1 0 251.36)">
		<stop  offset="0" style="stop-color:#E6BC91"/>
		<stop  offset="1" style="stop-color:#F3D5B5"/>
	</linearGradient>
	<path class="st3" d="M-571.8,136.6l1,0.4c0.9,0.3,3,1.2,3.9,1.4l7.3,0.2c0.3,0,2.3,0.1,2.6,0.1l9.5-0.4l9.9-0.8l6-1.3
		c2-0.2,6.6-1,8.5-1.6l4.5-1.6l-0.2-2.5l-0.2-2.1l-0.3-4.4l-1.4-6.1L-533,126c-0.3,0.2-0.5,0.3-0.8,0.5l-8.7,4.2l-7.9,3.3
		c-0.6,0.3-1.3,0.5-2,0.6l-8.5,1.7c-0.6,0.1-1.1,0.2-1.7,0.2L-571.8,136.6L-571.8,136.6z"/>
	<path class="st4" d="M-581.3,105.2c-0.2-0.2-0.7-0.5-0.8-0.7c-0.1-0.2-0.3-0.7-0.3-1c0-0.4,0.1-1.2,0.3-1.6
		c0.2-0.4,0.5-1.2,0.8-1.6c0.3-0.4,1.1-1.2,1.6-1.6c0.3-0.2,0.9-0.7,1.2-0.8c0.3-0.2,1-0.4,1.3-0.5c0.6-0.2,1.9-0.4,2.5-0.5
		c0.8-0.1,2.3-0.1,3,0c1.1,0.1,3.2,0.7,4.2,1c1.3,0.4,3.8,1,5,1.5c0.8,0.3,2.3,1,3,1.4c0.7,0.4,2.5,1.5,3.3,1.9
		c0.2,0.1,0.2,0.3,0,0.4c-0.5,0.4-1.6,1.3-2,1.6c-0.8,0.6-2.6,1.9-3.5,2.4c-1,0.6-3,1.8-4.1,2.4c-0.8,0.5-2.4,1.6-3.3,2
		c-1,0.4-3.2,1-4.4,1.1c-0.8,0.1-2.5,0.4-3.3,0.2c-0.8-0.1-2.2-0.5-2.9-0.9c-0.4-0.3-1.1-1.1-1.4-1.6c-0.3-0.5-0.7-1.5-0.7-2
		c0-0.3,0.2-0.8,0.3-1.1c0.1-0.2,0.3-0.6,0.4-0.8c0.1-0.2,0.2-0.6,0.1-0.7C-580.8,105.7-581.2,105.4-581.3,105.2L-581.3,105.2z"/>
</g>
<g id="Layer_2">
	<polygon points="97,141.4 84.2,142.1 76.3,145.6 66.3,152.3 59,159.4 49.9,169.5 41.9,179.1 33.7,189.2 27.7,199.6 22,206.6 
		17.1,214.4 13.6,221.7 11.8,227.3 8.1,235.2 5.4,242.6 3.9,246.4 119.4,246.4 123,238.2 128.6,233.1 131.5,226.9 135.5,220.3 
		141.5,202.1 139,190.4 131,174.8 127.6,161.4 119.7,149.1 107.5,143 	"/>
	<polygon points="151.3,177.7 160.7,185 168.7,189.2 175.8,192.4 183,194 187.7,199.1 190.3,209.1 191,218.1 186.6,246.4 165,246.4 
		161.8,238.2 157.3,217.5 154.2,202.3 151.9,189.7 	"/>
	<path d="M238.2,167.1l6.4,3l4.3,1.9l4.2,2l3.4,3.3l3.8,3.8l4.2,4.2l3.2,5.2l2.3,4.7l1.8,4.7l2.4,7.2l1.8,6.8l1.8,9.3l1.1,6.4
		c0,0,1.1,6,1.3,8s-0.2,8-0.2,8l-25,0.2l-1.9-5.8l2-9.3l5.8-5.6l2.7-5.9l-5.2-7.5l-5.8-9.6l-5.5-7.9l-5-11.6l-3.2-8.1L238.2,167.1
		L238.2,167.1z"/>
	<path class="st0" d="M121.9,23.5l2.9-5.3l2.1-5.2l2.6-4.6l4.4-3.6c0,0-5.4,1.8-6.6,2.1c-1,0.2-3.2,1.1-4.1,1.6c-1.3,0.7-5,3-5,3
		l-4.6,3.8l-3.8,3.9l-5.6,6.1l-5,5.5L95,37.8l-2.6,5.5l-1.9,5.1l-1.6,8.1l-2,8.5l-0.5,5.6l0,6.8l1.5,7.6l3.3,5.1l2.1,3.1l2.7,3
		l1.8,3.1l1.4,3.8l-0.9,4.1l-3,4.7l-3.4,4.7l-1.8,4.1l-1.5,5.8l-0.6,5.9l2.3,7.2l3.2,3l8.5,2.6l8.1,3.1l5.2,2.8l4,4.3l3.4,6.7
		l1.6,7.6l0.8,6.2l3.1,7.4l3.9,7.3l3,6.8l2.2,7.1l-2.8,10.4l-4,11.8l-5.5,7.1l-4,7.6l-2.9,5.2H166l-1.4-12.6l-1.4-10.1l-2-11.5
		l-2.9-12.4l-1.4-10.5l-2-9.6l-8.5-63.4l-11.4-37.7l-6-26.1l-5-17.9L121.9,23.5L121.9,23.5z"/>
	<path class="st0" d="M121.6,24l1.1-2.2l1.8-3.2l1-2.2l0.8-2l0.9-2l1.5-2.2l0.6-1.2l0.8-1.2l1-1.4l0.8-0.8l5.2-1.8l7.7-2l5.7-1.3
		l6.1-0.5l5.7-0.2l8.3,0.2l6.2,1.1c3.2,0.5,6.2,1.7,9,3.3l1.7,1c1.8,1.1,3.5,2.3,5.1,3.7l1.2,1.1c2.4,2.2,4.5,4.6,6.3,7.3l1.6,2.5
		l3.5,6.9l4.8,14.5l3.3,10.8l3.4,14l3.4,14.8l2.2,22l2.1,12.4l1.9,11.9l3.9,12.3l2.8,11.9l3.5,10.3l4.9,8.8l6.2,15.2l7.8,13.7l4.4,5
		c1.7,2,3.2,4.1,4.5,6.4l1.3,2.4c0.4,0.8,0.7,1.6,0.9,2.5l0,0c0.8,4.5,0.1,9-1.9,13.1l0,0l-5.8,5.1l-0.1,0.3
		c-1.3,3.2-1.9,6.6-1.7,10.1l0.1,1.6l-71.7,0.5l0.6-6.1l1.1-6.6l0.8-8.8c0,0,0.3-9.2,0-9.8s-1-6.3-1-6.3l0,0c-2-3.4-3-5.9-3.4-9.2
		l-0.3-2.4l-1.1-6.1l-2.1-5.6l-2.7-11l-3.1-13l-2.2-11.7l-0.7-14.8l-0.8-13.9l-5-14.3l-2.9-10.4l-3.1-12.1l-0.2-16.6l-5.8-14.6
		l-5.8-12.7l-11.7-8.8l-9.7-3.4L121.6,24L121.6,24z"/>
	<polygon class="st1" points="121.6,23.2 117.3,24.5 110.9,30 106.9,35.9 106,40.4 106.2,45.2 104.4,49.3 102.6,54.2 101.8,59.7 
		103.4,64.6 104.5,69.5 103.5,73.9 102.3,77.1 101,81.9 100.6,87.1 102,91.9 130,86.7 130.6,55.5 126,42.7 121.6,31.1 	"/>
	<polygon class="st1" points="101.4,96.2 101.9,102.1 103,107.9 104.2,112.9 106,117.9 108.4,123.5 111.4,128.3 114.5,132.8 
		119.2,136.5 123.8,139.2 127.2,141.4 131.8,144.8 136,147 139.8,151 142.9,154.5 144.9,158.7 146.6,163.5 147.9,166.2 149.9,172.2 
		154,181.3 156.4,183.2 161.9,184.9 159,167.7 149.9,133 135.9,123.2 122.2,111.5 106.5,97.6 	"/>
	<path class="st2" d="M113.6,28.5l-2.4,2.9c-0.4,0.5-0.8,1.1-1,1.7l-0.6,1.7c-0.1,0.4-0.2,0.8-0.3,1.1l-0.3,2.6c0,0.2,0,0.4,0,0.5
		v2.5c0,0.2,0,0.5-0.1,0.8l-0.7,3.4l-1,2.8l-1.1,2.8l-1,3.6l-0.5,2.6c-0.1,0.6-0.1,1.1,0,1.7l0.3,2.3c0,0.4,0.1,0.7,0.2,1.1l0.6,2
		l0.9,2.3l0,0.1c0.3,0.8,0.5,1.6,0.5,2.4v1.5l0,1.8V73l-0.2,1c-0.2,0.4-0.4,0.7-0.6,1.1l-2,2.9l-1.6,2.9c-0.2,0.3-0.3,0.7-0.5,1
		l-1.1,3.2l-0.5,2.1c-0.1,0.6-0.2,1.2-0.2,1.8l-0.1,2.4c0,0.6,0,1.2,0.1,1.8l0.6,3.3l1.7,5.3l1.3,4.1l0.5,3.1
		c0.1,0.8,0.3,1.5,0.6,2.2l1.5,4.4c0.1,0.4,0.3,0.9,0.5,1.3l1.6,3.5c0.3,0.6,0.6,1.1,1,1.6l2,3.1l2,3.4l1.4,2.1
		c0.4,0.6,0.8,1.1,1.4,1.5l1.5,1.3c0.2,0.2,0.4,0.3,0.6,0.5l1.8,1.2c1.1,0.5,2.2,0.8,3.4,0.9l3.6-0.3l5.5-0.8l5.5-1.3l5.2-1.2
		l6.4-2.4l7.2-3.5l6.2-3.6l5.7-3.8l2.6-2.2l0,0c1.3-0.9,1.8-2.6,1.1-4l-3.1-6.5l-2.9-8.9l-1.5-7.2l-1.6-8.4l-0.7-8.7l-0.5-8.5
		l-0.6-5.2c-0.3-2.2-0.8-4.4-1.7-6.5l-1.2-3l-2-5.1l-5.6-6.9l-4.3-4.1c-1.3-1.3-2.9-2.4-4.5-3.2l-5.6-2.8l-6.9-2.7l-6.1-1.9
		l-0.7-0.2c-1-0.3-2.1-0.2-3,0.3l-1.9,1c-0.6,0.3-1.3,0.8-1.8,1.3l-2.5,2.4C113.8,28.3,113.7,28.3,113.6,28.5L113.6,28.5z"/>
	<path class="st2" d="M122.1,136.1l1.9,0.7c1.5,0.6,2.9,1.3,4.2,2.4l0.8,0.6l4.5,3.1l3,2l3.1,2.4l1.8,2.1l1.2,1.4
		c0.9,1,1.5,2.2,2,3.5l0,0c0.2,0.5,0.4,1.1,0.7,1.6l3.7,7.1l3.1,7.9l3.4,11.1l1.6,2l4.1,3l3.8,2.1l5.4,2.5l2.8,1.4l4.5,2l5.7,1.3
		L182,191l-0.7-7.7l-0.4-4.4l-0.7-3.1l-2.3-7.1l-1.4-4.4l0-4.5l-1.5-5.6l-0.6-4.7v-6.1l0.8-5.9l0.8-4.1l-0.7-9.8l-2.2-9.5l-38,12.2
		l-11,5L122.1,136.1L122.1,136.1z"/>
	
		<linearGradient id="SVGID_00000100372771779571999670000009561775845750103994_" gradientUnits="userSpaceOnUse" x1="163.8858" y1="123.7921" x2="92.2058" y2="112.4821" gradientTransform="matrix(1 0 0 -1 0 251.36)">
		<stop  offset="0" style="stop-color:#E6BC91"/>
		<stop  offset="1" style="stop-color:#F3D5B5"/>
	</linearGradient>
	<path style="fill:url(#SVGID_00000100372771779571999670000009561775845750103994_);" d="M122.7,136.3l1,0.4c0.9,0.3,3,1.2,3.9,1.4
		l7.3,0.2c0.3,0,2.3,0.1,2.6,0.1l9.5-0.4l9.9-0.8l6-1.3c2-0.2,6.6-1,8.5-1.6l4.5-1.6l-0.2-2.5l-0.2-2.1l-0.3-4.4l-1.4-6.1l-12.3,8.2
		c-0.3,0.2-0.5,0.3-0.8,0.5l-8.7,4.2l-7.9,3.3c-0.6,0.3-1.3,0.5-2,0.6l-8.5,1.7c-0.6,0.1-1.1,0.2-1.7,0.2L122.7,136.3L122.7,136.3z"
		/>
	<path class="st4" d="M113.1,105c-0.2-0.2-0.7-0.5-0.8-0.7c-0.1-0.2-0.3-0.7-0.3-1c0-0.4,0.1-1.2,0.3-1.6c0.1-0.4,0.5-1.2,0.8-1.6
		c0.3-0.4,1.1-1.2,1.6-1.6c0.3-0.2,0.9-0.7,1.2-0.8s1-0.4,1.3-0.5c0.6-0.2,1.9-0.4,2.5-0.5c0.8-0.1,2.3-0.1,3,0
		c1.1,0.1,3.2,0.7,4.2,1c1.3,0.4,3.8,1,5,1.5c0.8,0.3,2.3,1,3,1.4s2.5,1.5,3.3,1.9c0.2,0.1,0.2,0.3,0,0.4c-0.5,0.4-1.6,1.3-2,1.6
		c-0.9,0.6-2.6,1.9-3.5,2.4c-1,0.6-3,1.8-4.1,2.4c-0.8,0.5-2.4,1.6-3.3,2c-1,0.4-3.2,1-4.4,1.1c-0.8,0.1-2.5,0.4-3.3,0.2
		c-0.8-0.1-2.2-0.5-2.9-0.9c-0.4-0.3-1.1-1.1-1.4-1.6s-0.7-1.5-0.7-2c0-0.3,0.2-0.8,0.3-1.1c0.1-0.2,0.3-0.6,0.4-0.8
		c0.1-0.2,0.1-0.6,0.1-0.7C113.6,105.5,113.3,105.1,113.1,105L113.1,105z"/>
</g>
</svg>
